<svg version="1.1" viewBox="0.0 0.0 298.79265091863516 100.0" fill="none" stroke="none" stroke-linecap="square" stroke-miterlimit="10" xmlns:xlink="http://www.w3.org/1999/xlink" xmlns="http://www.w3.org/2000/svg"><clipPath id="p.0"><path d="m0 0l298.79266 0l0 100.0l-298.79266 0l0 -100.0z" clip-rule="nonzero"/></clipPath><g clip-path="url(#p.0)"><path fill="#000000" fill-opacity="0.0" d="m0 0l298.79266 0l0 100.0l-298.79266 0z" fill-rule="evenodd"/><path fill="#000000" fill-opacity="0.0" d="m4.0734906 2.3937008l290.64566 0l0 95.2126l-290.64566 0z" fill-rule="evenodd"/><path fill="#ff0000" d="m12.792241 76.07369l0 -48.90625l7.546874 0l0 23.374998l0.21875 0l18.96875 -23.374998l8.421875 0l-15.296875 18.812498l17.015625 30.09375l-8.359375 0l-13.28125 -24.484375l-7.6875 9.484375l0 15.0l-7.546874 0z" fill-rule="nonzero"/><path fill="#ff00ff" d="m101.70786 54.120567l0 -5.375l32.703117 0l0 5.375l-32.703117 0zm46.51249 18.671875l0 -6.953125l21.796875 -14.40625l0 -0.296875l-21.796875 -14.40625l0 -6.937498l28.140625 18.812498l0 5.375l-28.140625 18.8125z" fill-rule="nonzero"/><path fill="#0000ff" d="m248.10472 76.07369l-15.453125 -48.90625l7.921875 0l7.390625 25.468748q1.265625 4.25 2.234375 8.03125q0.96875 3.765625 2.234375 8.015625l0.3125 0q1.34375 -4.25 2.3125 -8.015625q0.96876526 -3.78125 2.2343903 -8.03125l7.3125 -25.468748l7.625 0l-15.390625 48.90625l-8.73439 0z" fill-rule="nonzero"/></g></svg>